<svg width="761" height="201" viewBox="0 0 761 201" fill="none" xmlns="http://www.w3.org/2000/svg">
<path d="M179.998 144.303C177.422 145.372 174.657 146 171.704 146C171.327 146 170.95 146 170.573 146C170.196 146 169.882 146 169.505 146C157.817 146 148.328 137.894 148.328 127.84C148.328 125.578 148.831 123.378 149.711 121.368C149.773 121.242 149.773 121.116 149.836 120.991C149.933 120.733 150.211 120.178 150.569 119.488C151.324 118.031 152.41 116.78 153.567 115.618C157.777 111.388 160.393 105.515 160.393 99.0601C160.393 86.1155 149.899 75.6216 136.955 75.6216C124.01 75.6216 113.516 86.1155 113.516 99.0601C113.516 105.372 116.009 111.156 120.115 115.366C121.294 116.576 122.437 117.846 123.193 119.357V119.357C123.57 119.922 123.884 120.488 124.136 121.116C124.324 121.43 124.45 121.682 124.45 121.745C124.701 122.247 124.764 122.561 124.764 122.75C125.33 124.321 125.581 126.018 125.581 127.777C125.581 137.831 116.092 145.937 104.405 145.937C103.902 145.937 103.462 145.937 103.022 145.874C102.645 145.937 102.268 145.937 101.954 145.937C99.3775 145.937 96.9897 145.497 94.6647 144.68C73.6768 139.591 58.1559 120.362 59.0356 97.552C60.1038 72.6054 81.2174 53 106.227 53H166.865C191.121 53 212.674 72.7311 213.868 96.9865C215.125 119.42 200.421 138.648 179.998 144.303Z" fill="url(#paint0_linear_203_67)"/>
<path d="M146.757 99.123C146.757 104.527 142.359 108.926 136.955 108.926C131.551 108.926 127.152 104.527 127.152 99.123C127.152 93.719 131.551 89.3203 136.955 89.3203C142.359 89.3203 146.757 93.719 146.757 99.123Z" fill="url(#paint1_linear_203_67)"/>
<path d="M675.809 86.4607V95.3926H690.213V103.696H675.809V113.382H692.1V122H665.052V77.8433H692.1V86.4607H675.809Z" fill="#F9F9F9"/>
<path d="M636.04 122.44C632.811 122.44 629.918 121.916 627.36 120.868C624.802 119.819 622.747 118.268 621.196 116.213C619.686 114.158 618.889 111.684 618.805 108.791H630.253C630.421 110.426 630.987 111.684 631.952 112.565C632.916 113.403 634.174 113.823 635.726 113.823C637.319 113.823 638.577 113.466 639.5 112.753C640.422 111.999 640.884 110.971 640.884 109.671C640.884 108.581 640.506 107.679 639.751 106.967C639.039 106.254 638.137 105.667 637.047 105.205C635.998 104.744 634.489 104.22 632.518 103.633C629.666 102.752 627.339 101.872 625.536 100.991C623.733 100.11 622.181 98.8104 620.881 97.0911C619.581 95.3718 618.931 93.1283 618.931 90.3607C618.931 86.2511 620.42 83.0432 623.397 80.7368C626.375 78.3885 630.253 77.2144 635.034 77.2144C639.898 77.2144 643.819 78.3885 646.796 80.7368C649.774 83.0432 651.367 86.2721 651.577 90.4236H639.94C639.856 88.9978 639.332 87.8866 638.368 87.0898C637.403 86.2511 636.166 85.8318 634.656 85.8318C633.357 85.8318 632.308 86.1882 631.511 86.9011C630.715 87.5721 630.316 88.5575 630.316 89.8575C630.316 91.2832 630.987 92.3945 632.329 93.1912C633.671 93.988 635.768 94.8476 638.619 95.7702C641.471 96.7346 643.777 97.6572 645.538 98.5378C647.342 99.4184 648.893 100.697 650.193 102.375C651.493 104.052 652.143 106.212 652.143 108.854C652.143 111.37 651.493 113.655 650.193 115.71C648.935 117.765 647.09 119.4 644.658 120.616C642.226 121.832 639.353 122.44 636.04 122.44Z" fill="#F9F9F9"/>
<path d="M595.259 122L586.075 105.331H583.496V122H572.74V77.8433H590.793C594.273 77.8433 597.23 78.4513 599.662 79.6674C602.136 80.8835 603.981 82.5608 605.197 84.6995C606.413 86.7962 607.021 89.1445 607.021 91.7444C607.021 94.6798 606.183 97.3006 604.505 99.607C602.87 101.913 600.438 103.549 597.209 104.513L607.399 122H595.259ZM583.496 97.72H590.164C592.135 97.72 593.602 97.2377 594.567 96.2733C595.573 95.3088 596.077 93.9459 596.077 92.1847C596.077 90.5073 595.573 89.1864 594.567 88.2219C593.602 87.2574 592.135 86.7752 590.164 86.7752H583.496V97.72Z" fill="url(#paint2_linear_203_67)"/>
<path d="M561.955 77.8433L546.292 122H532.832L517.169 77.8433H528.617L539.562 111.181L550.57 77.8433H561.955Z" fill="url(#paint3_linear_203_67)"/>
<path d="M494.993 113.697H509.082V122H484.237V77.8433H494.993V113.697Z" fill="#F9F9F9"/>
<path d="M454.672 86.4607V95.3926H469.076V103.696H454.672V113.382H470.963V122H443.916V77.8433H470.963V86.4607H454.672Z" fill="#F9F9F9"/>
<path d="M433.13 77.8433L417.468 122H404.007L388.345 77.8433H399.793L410.738 111.181L421.745 77.8433H433.13Z" fill="#F9F9F9"/>
<path d="M366.499 114.2H350.019L347.377 122H336.118L352.095 77.8433H364.549L380.526 122H369.141L366.499 114.2ZM363.731 105.897L358.259 89.7316L352.85 105.897H363.731Z" fill="#F9F9F9"/>
<path d="M314.207 122L305.023 105.331H302.444V122H291.688V77.8433H309.741C313.221 77.8433 316.178 78.4513 318.61 79.6674C321.084 80.8835 322.929 82.5608 324.145 84.6995C325.361 86.7962 325.969 89.1445 325.969 91.7444C325.969 94.6798 325.131 97.3006 323.453 99.607C321.818 101.913 319.386 103.549 316.157 104.513L326.347 122H314.207ZM302.444 97.72H309.112C311.083 97.72 312.55 97.2377 313.515 96.2733C314.521 95.3088 315.025 93.9459 315.025 92.1847C315.025 90.5073 314.521 89.1864 313.515 88.2219C312.55 87.2574 311.083 86.7752 309.112 86.7752H302.444V97.72Z" fill="#F9F9F9"/>
<path d="M280 77.8433V86.4607H268.3V122H257.544V86.4607H245.845V77.8433H280Z" fill="#F9F9F9"/>
<defs>
<linearGradient id="paint0_linear_203_67" x1="56.3846" y1="47.1311" x2="135.599" y2="183.22" gradientUnits="userSpaceOnUse">
<stop stop-color="#E3290D"/>
<stop offset="1" stop-color="#990BB0"/>
</linearGradient>
<linearGradient id="paint1_linear_203_67" x1="126.821" y1="88.0831" x2="146.017" y2="107.877" gradientUnits="userSpaceOnUse">
<stop stop-color="#E3290D"/>
<stop offset="1" stop-color="#990BB0"/>
</linearGradient>
<linearGradient id="paint2_linear_203_67" x1="515.5" y1="64.4998" x2="626.809" y2="157.791" gradientUnits="userSpaceOnUse">
<stop stop-color="#E3290D"/>
<stop offset="0.583832" stop-color="#6F1686"/>
</linearGradient>
<linearGradient id="paint3_linear_203_67" x1="515.5" y1="64.4998" x2="626.809" y2="157.791" gradientUnits="userSpaceOnUse">
<stop stop-color="#E3290D"/>
<stop offset="0.583832" stop-color="#6F1686"/>
</linearGradient>
</defs>
</svg>
